<svg xmlns="http://www.w3.org/2000/svg" viewBox="0 0 90.63 90.63"><title>Color</title><g id="Layer_2" data-name="Layer 2"><g id="Layer_1-2" data-name="Layer 1"><circle cx="53.71" cy="43.59" r="0.86" fill="#414042"/><path d="M53.85,47.29a.86.86,0,0,0-1,.72c-.23,1.59-1.58,2.91-3.59,3.53-2.16.66-5.15.44-7-1.55a.87.87,0,0,0-1.22-.05A.86.86,0,0,0,41,51.16a7.62,7.62,0,0,0,4.15,2.27,9.67,9.67,0,0,0,4.59-.24c2.67-.82,4.46-2.66,4.8-4.93A.86.86,0,0,0,53.85,47.29Z" fill="#414042"/><path d="M65.83,39.66A10.66,10.66,0,0,0,59.5,36.2a48.65,48.65,0,0,0,6.17-4.82c2.34-2.22,3.12-3.79,2.47-4.92s-2.83-1.25-6.61,0a66.14,66.14,0,0,0-11.22,5.29c-.7.4-1.39.81-2.06,1.23a4.65,4.65,0,0,1,.93-4.44,3.29,3.29,0,0,0,.49-3.48,3.5,3.5,0,0,0-3.27-1.84h0a21.42,21.42,0,0,0-14.48,5.84,21.7,21.7,0,0,0-7,14.06,22.13,22.13,0,0,0,22,24.23A23.41,23.41,0,0,0,56,65.58,20.79,20.79,0,0,0,62.84,61,20.52,20.52,0,0,0,67,54.66a18.16,18.16,0,0,0,1.5-6.81A12,12,0,0,0,65.83,39.66ZM48.35,35c.91-.57,1.86-1.15,2.82-1.7a67.26,67.26,0,0,1,10.46-5c3.32-1.17,4.68-1.09,5-.94,0,.2-.28,1.09-2.46,3.1A54.68,54.68,0,0,1,56.7,36c-1,.6-1.94,1.2-2.94,1.78-1.38.79-2.76,1.54-4.11,2.22a13,13,0,0,0-1-2.28,12.67,12.67,0,0,0-1.41-2Zm-.26,5.76a43.15,43.15,0,0,1-6.45,2.55A4,4,0,0,0,41.15,42a4.44,4.44,0,0,0-.81-1,45.14,45.14,0,0,1,5.43-4.3,11,11,0,0,1,2.32,4Zm18.73,7.09c-.13,8.58-7.81,17.84-20,17.84A20.34,20.34,0,0,1,46.36,25h0a1.77,1.77,0,0,1,1.71.86,1.58,1.58,0,0,1-.28,1.67,6.35,6.35,0,0,0-1.07,6.43l-1.35.89h0a46.51,46.51,0,0,0-6.59,5.23,4.28,4.28,0,0,0-3.54.35c-1.79,1-4.14,5.85-4.6,6.81a.86.86,0,0,0,.71,1.23c.48,0,1.83.14,3.34.14,1.82,0,3.87-.15,4.86-.72a4.28,4.28,0,0,0,2.05-2.81A45.62,45.62,0,0,0,49.5,42c1.67-.82,3.4-1.73,5.12-2.73.88-.5,1.74-1,2.58-1.55h0C64.4,37.9,66.88,43.06,66.82,47.82ZM40,44.31a2.55,2.55,0,0,1-1.29,2.08c-.81.47-3.61.54-5.91.43,1.06-2,2.51-4.44,3.33-4.91a2.58,2.58,0,0,1,3.53,1A2.48,2.48,0,0,1,40,44.31Z" fill="#414042"/><path d="M39.92,28.58A3.45,3.45,0,1,0,43.36,32,3.45,3.45,0,0,0,39.92,28.58Zm0,5.17A1.72,1.72,0,1,1,41.64,32,1.73,1.73,0,0,1,39.92,33.75Z" fill="#414042"/><path d="M35.61,51.74a3.45,3.45,0,1,0,3.44,3.45A3.46,3.46,0,0,0,35.61,51.74Zm0,5.17a1.72,1.72,0,1,1,1.72-1.72A1.73,1.73,0,0,1,35.61,56.91Z" fill="#414042"/><path d="M44.22,56.91a3.45,3.45,0,1,0,3.45,3.45A3.45,3.45,0,0,0,44.22,56.91Zm0,5.17A1.72,1.72,0,1,1,46,60.36,1.72,1.72,0,0,1,44.22,62.08Z" fill="#414042"/><path d="M54.57,55.19A3.45,3.45,0,1,0,58,58.64,3.46,3.46,0,0,0,54.57,55.19Zm0,5.17a1.73,1.73,0,1,1,1.72-1.72A1.73,1.73,0,0,1,54.57,60.36Z" fill="#414042"/><path d="M61.46,46.57A3.45,3.45,0,1,0,64.91,50,3.46,3.46,0,0,0,61.46,46.57Zm0,5.17A1.73,1.73,0,1,1,63.19,50,1.72,1.72,0,0,1,61.46,51.74Z" fill="#414042"/><rect x="0.5" y="0.5" width="89.63" height="89.63" rx="2" fill="none" stroke="#414042" stroke-miterlimit="10"/></g></g></svg>