<svg xmlns="http://www.w3.org/2000/svg" viewBox="0 0 90.63 90.63"><title>engine</title><g id="Layer_2" data-name="Layer 2"><g id="Layer_1-2" data-name="Layer 1"><path d="M47.9,28a.88.88,0,0,0-1.27,0,.88.88,0,0,0-.26.63.9.9,0,0,0,.26.64.9.9,0,0,0,1.53-.64A.92.92,0,0,0,47.9,28Z" fill="#414042"/><path d="M67.44,41.55a.89.89,0,0,0-.89.89v5.37h-3V40.19a.87.87,0,0,0-.27-.63l-2.77-2.78a.91.91,0,0,0-.64-.27H51.66V33.82h4.93a3.05,3.05,0,0,0,0-6.1h-5a.9.9,0,1,0,0,1.8h5a1.26,1.26,0,1,1,0,2.51H37.76a1.26,1.26,0,1,1,0-2.51h5.42a.9.9,0,0,0,0-1.8H37.76a3,3,0,1,0,0,6.1h4.93v2.69H38.62a.9.9,0,0,0-.63.27l-2.64,2.63h-3.6a.9.9,0,0,0-.9.9v3.92H29.06a.89.89,0,0,0-.9.89v2.69H27.08V41.4a2.33,2.33,0,0,0-4.66,0V56.12a2.33,2.33,0,1,0,4.66,0V49.61h1.08V52.3a.9.9,0,0,0,.9.9h1.79v1.95a.86.86,0,0,0,.26.63L36,60.65a.9.9,0,0,0,.63.26h17.6a.94.94,0,0,0,.64-.26L56.51,59H62.6a.9.9,0,0,0,.9-.9V49.61h3V55a.9.9,0,1,0,1.79,0V42.44A.89.89,0,0,0,67.44,41.55ZM25.29,48.69v7.43a.54.54,0,1,1-1.08,0V41.4a.54.54,0,0,1,1.08,0Zm5.56,2.71H30V46h.9ZM44.48,33.82h5.38v2.69H44.48ZM61.7,57.19H56.14a.88.88,0,0,0-.63.26l-1.67,1.67H37l-4.34-4.34V41.21h3.08a.91.91,0,0,0,.64-.27L39,38.31H59.45l2.25,2.25Z" fill="#414042"/><path d="M52.47,55.43a.91.91,0,0,0-1.27,0,.91.91,0,0,0,0,1.27.9.9,0,0,0,1.27-1.27Z" fill="#414042"/><path d="M48.19,55.17H39.9l-3.79-3.79a.9.9,0,0,0-1.27,1.27L38.9,56.7a.88.88,0,0,0,.63.26h8.66a.9.9,0,1,0,0-1.79Z" fill="#414042"/><rect x="0.5" y="0.5" width="89.63" height="89.63" rx="2" fill="none" stroke="#414042" stroke-miterlimit="10"/></g></g></svg>