<svg xmlns="http://www.w3.org/2000/svg" viewBox="0 0 90.63 90.63"><title>fuel avg</title><g id="Layer_2" data-name="Layer 2"><g id="Layer_1-2" data-name="Layer 1"><path d="M45.47,21.07A24.25,24.25,0,1,0,69.72,45.32,24.27,24.27,0,0,0,45.47,21.07Zm0,46.93A22.69,22.69,0,1,1,68.16,45.32,22.71,22.71,0,0,1,45.47,68Z" fill="#414042"/><path d="M41.56,45.32a3.92,3.92,0,1,0,3.91-3.91,5.48,5.48,0,0,0-.57.05L38,35.15H35.31V37.8l6.31,6.94a3.68,3.68,0,0,0-.06.58Zm6.26,0A2.35,2.35,0,1,1,45.47,43,2.35,2.35,0,0,1,47.82,45.32Zm-11-8.13v-.48h.48l5.92,5.38a4,4,0,0,0-1,1Z" fill="#414042"/><path d="M45.47,24.2A21.12,21.12,0,1,0,66.59,45.32,21.14,21.14,0,0,0,45.47,24.2Zm0,40.67A19.57,19.57,0,0,1,25.94,46.1h3.11V44.53H25.94a19.37,19.37,0,0,1,1.18-6L30,39.75l.6-1.44-2.87-1.19a19.72,19.72,0,0,1,3.38-5.06l2.2,2.19,1.1-1.1L32.22,31a19.34,19.34,0,0,1,5.06-3.39l1.19,2.87,1.44-.6L38.72,27a19.37,19.37,0,0,1,6-1.18v3.11h1.57V25.78a19.37,19.37,0,0,1,6,1.18L51,29.84l1.44.6,1.19-2.87A19.5,19.5,0,0,1,58.73,31l-2.19,2.19,1.1,1.1,2.2-2.19a19.72,19.72,0,0,1,3.38,5.06l-2.87,1.19.6,1.44,2.88-1.19a19.37,19.37,0,0,1,1.18,6H61.9V46.1H65A19.58,19.58,0,0,1,45.47,64.87Z" fill="#414042"/><path d="M46.49,55.49h-1V53.92H47V52.36H39.22v1.56h1.56v1.71a2.32,2.32,0,0,0-.7.4l-3.44-3.44-1.11,1.1,3.73,3.73a1.84,1.84,0,0,0,0,.41V59.4a3.92,3.92,0,0,0,3.91,3.91h5.79A3.91,3.91,0,0,0,52.49,61l2.37-5.33v-2.3l-6.23,3.56Zm-2.58-1.57v1.57H42.35V53.92Zm7.15,6.43a2.34,2.34,0,0,1-2.14,1.39H43.13a2.35,2.35,0,0,1-2.35-2.34V57.83a.78.78,0,0,1,.78-.78H46l2.55,1.7,4.29-2.45Z" fill="#414042"/><path d="M59.55,49.23a2.35,2.35,0,1,0,2.35,2.34A2.34,2.34,0,0,0,59.55,49.23Zm0,3.13a.79.79,0,1,1,.79-.79A.78.78,0,0,1,59.55,52.36Z" fill="#414042"/><path d="M31.39,49.23a2.35,2.35,0,1,0,2.35,2.34A2.34,2.34,0,0,0,31.39,49.23Zm0,3.13a.79.79,0,1,1,.79-.79A.78.78,0,0,1,31.39,52.36Z" fill="#414042"/><rect x="0.5" y="0.5" width="89.63" height="89.63" rx="2" fill="none" stroke="#414042" stroke-miterlimit="10"/></g></g></svg>