<svg xmlns="http://www.w3.org/2000/svg" viewBox="0 0 90.63 90.63"><title>fuel type</title><g id="Layer_2" data-name="Layer 2"><g id="Layer_1-2" data-name="Layer 1"><path d="M68.49,31.37a2.26,2.26,0,0,0-.67-1.61L63,24.94a1.3,1.3,0,0,0-.91-.38,1.32,1.32,0,0,0-.92.38L60.12,26a1.28,1.28,0,0,0-.38.91,1.32,1.32,0,0,0,.38.92l3.55,3.55h-.85a1.63,1.63,0,0,0-1.2.53,1.65,1.65,0,0,0-.44,1.24l.14,1.93a.69.69,0,0,0,.68.63h0l.18,2.89a2.51,2.51,0,0,0,2.2,2.32V55.13a.64.64,0,0,1-.19.45.71.71,0,0,1-.46.17.66.66,0,0,1-.6-.66v-2a4.7,4.7,0,0,0-4.69-4.7H58.1V24a1.84,1.84,0,0,0-1.83-1.84H31.39A1.84,1.84,0,0,0,29.56,24V60.16a4.91,4.91,0,0,0-3.26,4.62V67a1.45,1.45,0,0,0,1.45,1.45H59.91A1.45,1.45,0,0,0,61.36,67V64.78a4.91,4.91,0,0,0-3.26-4.62V52.45h.37a.62.62,0,0,1,.62.62v2a4.82,4.82,0,0,0,1.44,3.43,4.61,4.61,0,0,0,3.26,1.34h.08a4.72,4.72,0,0,0,4.62-4.69V32.06h0Zm-3.39-.48-4-4,1-1,4.77,4.77a.93.93,0,0,1,.27.65H65.47A2,2,0,0,0,65.1,30.89Zm-2.49,1.94a.29.29,0,0,1,.21-.09h4.31v8.57H65.77V36a1.64,1.64,0,0,0-1.64-1.64h-1.5l-.09-1.31A.29.29,0,0,1,62.61,32.83Zm1,5.68-.17-2.8h.73a.29.29,0,0,1,.28.29v3.54A1.14,1.14,0,0,1,63.57,38.51Zm-32.18-15H56.27a.48.48,0,0,1,.47.48v21H30.92V24A.48.48,0,0,1,31.39,23.5ZM56.47,59.88H38a.68.68,0,0,0,0,1.36H56.47A3.54,3.54,0,0,1,60,64.78V67a.09.09,0,0,1-.09.09H27.75a.09.09,0,0,1-.09-.09V64.78a3.54,3.54,0,0,1,3.53-3.54h4.1a.68.68,0,0,0,0-1.36H30.92V46.29H56.74v13.6Zm7.38-1.41a3.3,3.3,0,0,1-2.37-1,3.46,3.46,0,0,1-1-2.46v-2a2,2,0,0,0-2-2H58.1V49.73h.36a3.35,3.35,0,0,1,3.35,3.34v2a2,2,0,0,0,1.88,2h.1a2,2,0,0,0,1.36-.55,2,2,0,0,0,.62-1.43V42.67h1.36V55.13A3.36,3.36,0,0,1,63.85,58.47Z" fill="#414042"/><path d="M34.62,43.42H53a1.83,1.83,0,0,0,1.83-1.83v-8.4a.68.68,0,0,0-1.36,0v8.4a.47.47,0,0,1-.47.47H34.62a.48.48,0,0,1-.48-.47V28.54a.49.49,0,0,1,.48-.48H53a.48.48,0,0,1,.47.48v1.85a.68.68,0,0,0,1.36,0V28.54A1.84,1.84,0,0,0,53,26.7H34.62a1.84,1.84,0,0,0-1.83,1.84V41.59A1.83,1.83,0,0,0,34.62,43.42Z" fill="#414042"/><path d="M47.08,39.39a.69.69,0,0,0,.68.68h2.41a1.22,1.22,0,0,0,.94-.44,1.21,1.21,0,0,0,.25-1A7.5,7.5,0,0,0,42,32.87l-1-1.58a.68.68,0,1,0-1.15.73l.86,1.34a7.52,7.52,0,0,0-4,5.27,1.2,1.2,0,0,0,1.18,1.44h7.27a.68.68,0,0,0,0-1.36H38a6.14,6.14,0,0,1,3.41-4.19l1.85,2.89a.66.66,0,0,0,.93.21.68.68,0,0,0,.21-.94l-1.66-2.6A5.83,5.83,0,0,1,44,34a6.17,6.17,0,0,1,6,4.76H47.76A.68.68,0,0,0,47.08,39.39Z" fill="#414042"/><rect x="0.5" y="0.5" width="89.63" height="89.63" rx="2" fill="none" stroke="#414042" stroke-miterlimit="10"/></g></g></svg>