<svg xmlns="http://www.w3.org/2000/svg" viewBox="0 0 90.63 90.63"><title>kilometer driven</title><g id="Layer_2" data-name="Layer 2"><g id="Layer_1-2" data-name="Layer 1"><rect x="0.5" y="0.5" width="89.63" height="89.63" rx="2" fill="none" stroke="#414042" stroke-miterlimit="10"/><path d="M62.41,28.23a24.17,24.17,0,1,0,7.08,17.09A24,24,0,0,0,62.41,28.23ZM45.32,68.07A22.75,22.75,0,1,1,68.07,45.32,22.77,22.77,0,0,1,45.32,68.07Z" fill="#414042"/><path d="M63.35,35.8a.71.71,0,0,0-1.25.66,19,19,0,1,1-1.83-2.82.7.7,0,0,0,1,.13.72.72,0,0,0,.13-1,20.35,20.35,0,1,0,2,3Z" fill="#414042"/><path d="M61.54,45.32A16.23,16.23,0,1,0,45.32,61.54a.71.71,0,0,0,.71-.71V58.56a.71.71,0,0,0-.71-.71A12.54,12.54,0,1,1,57.85,45.32a.71.71,0,0,0,.71.71h2.27A.71.71,0,0,0,61.54,45.32Zm-30.18,0A14,14,0,0,0,44.61,59.25v.85a14.8,14.8,0,0,1,0-29.57v.85A14,14,0,0,0,31.36,45.32Zm27.89-.71A14,14,0,0,0,46,31.38v-.85A14.82,14.82,0,0,1,60.1,44.61Z" fill="#414042"/><path d="M48.28,45.65l2.16-8.07a.71.71,0,0,0-.32-.8.73.73,0,0,0-.88.13L43.49,43a2.89,2.89,0,0,0-.77.9,3,3,0,0,0,4.57,3.69,3,3,0,0,0,1-1.9Zm-1.39-.32a.51.51,0,0,0,0,.13,1.5,1.5,0,0,1-.19.62A1.56,1.56,0,1,1,44,44.55a1.44,1.44,0,0,1,.43-.49l.09-.08,3.87-4.07Z" fill="#414042"/><path d="M47.4,50.19a.72.72,0,0,0-1-.14l-1.89,1.42v-.86a.71.71,0,0,0-1.42,0v4.55a.71.71,0,0,0,1.42,0V54.3l1.89,1.42a.72.72,0,0,0,1-.14.71.71,0,0,0-.14-1L45,52.88l2.27-1.7A.71.71,0,0,0,47.4,50.19Z" fill="#414042"/><path d="M58.18,55.86a.7.7,0,0,0,.71-.7V50.61a.71.71,0,1,0-1.42,0v1.57H55.86V50.61a.71.71,0,1,0-1.41,0v4.55a.71.71,0,0,0,1.41,0V53.59h1.61v1.57A.7.7,0,0,0,58.18,55.86Z" fill="#414042"/><path d="M49.48,55.86a.7.7,0,0,0,.71-.7V53.59h2.32a.71.71,0,0,0,.71-.71V50.61a.71.71,0,0,0-.71-.71h-3a.71.71,0,0,0-.71.71v4.55A.7.7,0,0,0,49.48,55.86Zm.71-4.54H51.8v.86H50.19Z" fill="#414042"/></g></g></svg>