<svg xmlns="http://www.w3.org/2000/svg" viewBox="0 0 90.63 90.63"><title>seats</title><g id="Layer_2" data-name="Layer 2"><g id="Layer_1-2" data-name="Layer 1"><path d="M22.78,20.57Z" fill="#414042"/><path d="M70.48,54.74a7.46,7.46,0,0,0-6-1.86l-23,3-.91-8.81a49.77,49.77,0,0,0-3.37-14.17l-.81-2a6.58,6.58,0,0,0-3.36-3.54,6.41,6.41,0,0,0,.25-4.68.08.08,0,0,0,0,0,8.54,8.54,0,0,0-7.78-5.39,2.74,2.74,0,0,0-2.73,3.33l7.64,33.36a.77.77,0,0,0,1.5-.34L26.69,30.11A1.55,1.55,0,0,1,27,28.8a1.57,1.57,0,0,1,1.23-.57l2.19.05a5.19,5.19,0,0,1,1.31.2l.06,0A5.05,5.05,0,0,1,35,31.45l.81,2a48.19,48.19,0,0,1,3.27,13.74h0L40,56.1l-1.45.19a4.3,4.3,0,0,0-7.65,3.5h0l1.87,7.77a2.07,2.07,0,0,0,2,1.59H64.15a4,4,0,0,0,4-3.91H69.9a3.68,3.68,0,0,0,3.54-3.8A8.87,8.87,0,0,0,70.48,54.74ZM31.6,26.88a6.23,6.23,0,0,0-1.15-.13l-2.19,0a3,3,0,0,0-2.2.86l-1.79-7.34a1.18,1.18,0,0,1,.25-1,1.2,1.2,0,0,1,1-.44,7,7,0,0,1,6.39,4.4A4.92,4.92,0,0,1,31.6,26.88Zm3.19,40.76h0a.56.56,0,0,1-.54-.43l-1.86-7.76a2.76,2.76,0,1,1,5.4-1.19L40,67.64ZM69.9,63.73H61.28a.76.76,0,0,0,0,1.52h5.31a2.45,2.45,0,0,1-2.44,2.39H41.54L41,65.25H57.73a.76.76,0,0,0,0-1.52H40.64l-1.36-5.81a1.16,1.16,0,0,0,0-.18L64.73,54.4a5.92,5.92,0,0,1,4.75,1.49,7.36,7.36,0,0,1,2.43,5.56A2.16,2.16,0,0,1,69.9,63.73Z" fill="#414042"/><rect x="0.5" y="0.5" width="89.63" height="89.63" rx="2" fill="none" stroke="#414042" stroke-miterlimit="10"/></g></g></svg>