<svg xmlns="http://www.w3.org/2000/svg" viewBox="0 0 90.63 90.63"><title>transmission</title><g id="Layer_2" data-name="Layer 2"><g id="Layer_1-2" data-name="Layer 1"><path d="M65.31,52.21a1,1,0,0,0-1,1v7.92a4.13,4.13,0,0,1-4.12,4.13H30.36a4.13,4.13,0,0,1-4.12-4.13V37.05a4.13,4.13,0,0,1,4.12-4.13H41.43l.73,13h-5.1V40.52a2.92,2.92,0,0,0-2.91-2.91,2.89,2.89,0,0,0-2.06.85,2.86,2.86,0,0,0-.86,2.06V57.64a2.92,2.92,0,1,0,5.83,0V51.77h5.28v5.87a2.92,2.92,0,1,0,5.83,0V51.77h5.28v5.87a2.92,2.92,0,1,0,5.83,0V40.52a2.92,2.92,0,0,0-2.91-2.91,2.92,2.92,0,0,0-2.92,2.91v5.42H48.36l.76-13h11.1a4.13,4.13,0,0,1,4.12,4.13v7.59a1,1,0,0,0,1.94,0V37.05A6.06,6.06,0,0,0,60.22,31h-11l.14-2.33a4.54,4.54,0,0,0,1.15-3V22A4.55,4.55,0,0,0,46,17.45H44.6A4.54,4.54,0,0,0,40.06,22v3.65a4.54,4.54,0,0,0,1.13,3L41.32,31h-11a6.08,6.08,0,0,0-6.07,6.07V61.11a6.08,6.08,0,0,0,6.07,6.07H60.22a6.07,6.07,0,0,0,6.06-6.07V53.19a1,1,0,0,0-1-1ZM43.48,30a10.67,10.67,0,0,0,2.53.14A5.13,5.13,0,0,0,47.35,30l-1,16.88-.12,2a3.56,3.56,0,0,1-.05.47.94.94,0,0,1-.93.77,1,1,0,0,1-.72-.32,1.16,1.16,0,0,1-.26-.77l-.12-2.14h0l-.41-7.31-.43-7.65h0L43.21,30l.27.08ZM36.09,49.83a1,1,0,0,0-1,1v6.84a1,1,0,1,1-1.95,0V40.52a.92.92,0,0,1,.29-.68.94.94,0,0,1,.69-.29,1,1,0,0,1,1,1v6.39a1,1,0,0,0,1,1h6.18c0,.29,0,.57,0,.86a5.76,5.76,0,0,0,.11,1.09Zm10.14,7.81a1,1,0,1,1-1.95,0V51.86a3,3,0,0,0,1.95,0v5.78Zm8.19-9.76a1,1,0,0,0,1-1V40.52a1,1,0,0,1,.29-.69,1,1,0,0,1,1.66.69V57.64a1,1,0,1,1-2,0V50.8a1,1,0,0,0-1-1H48.08a5.27,5.27,0,0,0,.11-1c0-.3,0-.6.05-.9ZM42,22a2.61,2.61,0,0,1,2.6-2.6H46a2.61,2.61,0,0,1,2.6,2.6v3.65A2.61,2.61,0,0,1,47,28a4,4,0,0,1-1.65.2,4.54,4.54,0,0,1-1.64-.16A2.58,2.58,0,0,1,42,25.64V22Z" fill="#414042"/><path d="M33.29,36.08A1,1,0,0,0,34.9,35a1,1,0,0,0-1.35-.27,1,1,0,0,0-.26,1.35Z" fill="#414042"/><path d="M34.47,61.72a1,1,0,1,0-.23,1.86,1,1,0,0,0,.81-.8,1,1,0,0,0-.58-1.06Z" fill="#414042"/><path d="M57.38,35a1,1,0,0,0-1.62,1.08A1,1,0,0,0,57.38,35Z" fill="#414042"/><path d="M56.94,61.72a1,1,0,1,0-.23,1.86,1,1,0,0,0,.82-.8A1,1,0,0,0,56.94,61.72Z" fill="#414042"/><path d="M46.1,62.08a1,1,0,1,0-.17,1.27,1,1,0,0,0,.17-1.27Z" fill="#414042"/><path d="M66.32,48.82a1,1,0,1,0-.6,1.09A1,1,0,0,0,66.32,48.82Z" fill="#414042"/><rect x="0.5" y="0.5" width="89.63" height="89.63" rx="2" fill="none" stroke="#414042" stroke-miterlimit="10"/></g></g></svg>