<svg xmlns="http://www.w3.org/2000/svg" viewBox="0 0 90.63 90.63"><title>year</title><g id="Layer_2" data-name="Layer 2"><g id="Layer_1-2" data-name="Layer 1"><path d="M62.9,27.38h-4V26.2a2.54,2.54,0,0,0-5.08,0v1.18H39.58V26.2a2.54,2.54,0,1,0-5.07,0v1.22a.93.93,0,0,0-.23,0H30.91a4.24,4.24,0,0,0-4.23,4.23V46a.85.85,0,1,0,1.69,0V36.1h30.5a.85.85,0,0,0,.84-.85.84.84,0,0,0-.84-.84H28.37v-2.8a2.54,2.54,0,0,1,2.54-2.53h3.37a1.81,1.81,0,0,0,.23,0v1.08a2.54,2.54,0,1,0,5.07,0V29.08H53.79v1.05a2.54,2.54,0,1,0,5.08,0V29.08h4a2.54,2.54,0,0,1,2.54,2.53V63.76a1.53,1.53,0,0,1-3,0V61.57a.85.85,0,0,0-.85-.85H51.71a.85.85,0,1,0,0,1.69h9v1.35a3.23,3.23,0,0,0,.38,1.52H27a1.53,1.53,0,0,1-1.52-1.52V62.41H44.44a.85.85,0,1,0,0-1.69H36a6.93,6.93,0,1,0-9,0H24.67a.85.85,0,0,0-.85.85v2.19A3.21,3.21,0,0,0,27,67H63.91a3.22,3.22,0,0,0,3.22-3.21V31.61A4.24,4.24,0,0,0,62.9,27.38Zm-25,2.75a.85.85,0,1,1-1.69,0V26.2a.85.85,0,1,1,1.69,0Zm19.29,0a.85.85,0,1,1-1.7,0V26.2a.85.85,0,0,1,1.7,0ZM26.23,55.47a5.25,5.25,0,1,1,5.24,5.24A5.25,5.25,0,0,1,26.23,55.47Z" fill="#414042"/><path d="M63.43,34.65a.85.85,0,0,0-1.19,1.2.83.83,0,0,0,1.19,0,.84.84,0,0,0,0-1.2Z" fill="#414042"/><path d="M49.08,61a.84.84,0,0,0-.6-.25.82.82,0,0,0-.59.25.84.84,0,0,0-.25.6.84.84,0,0,0,.84.84.87.87,0,0,0,.6-.24.86.86,0,0,0,.25-.6A.84.84,0,0,0,49.08,61Z" fill="#414042"/><path d="M43,49.38a3.22,3.22,0,1,0,3.21,3.21A3.22,3.22,0,0,0,43,49.38Zm0,4.73a1.52,1.52,0,1,1,1.52-1.52A1.53,1.53,0,0,1,43,54.11Z" fill="#414042"/><path d="M50.85,49.38a3.22,3.22,0,1,0,3.22,3.21A3.21,3.21,0,0,0,50.85,49.38Zm0,4.73a1.52,1.52,0,1,1,1.52-1.52A1.52,1.52,0,0,1,50.85,54.11Z" fill="#414042"/><path d="M58.75,49.38A3.22,3.22,0,1,0,62,52.59,3.22,3.22,0,0,0,58.75,49.38Zm0,4.73a1.52,1.52,0,1,1,1.52-1.52A1.53,1.53,0,0,1,58.75,54.11Z" fill="#414042"/><path d="M35.06,40.58a3.22,3.22,0,1,0,3.22,3.21A3.21,3.21,0,0,0,35.06,40.58Zm0,4.74a1.53,1.53,0,1,1,1.53-1.53A1.53,1.53,0,0,1,35.06,45.32Z" fill="#414042"/><path d="M50.85,40.58a3.22,3.22,0,1,0,3.22,3.21A3.21,3.21,0,0,0,50.85,40.58Zm0,4.74a1.53,1.53,0,1,1,1.52-1.53A1.53,1.53,0,0,1,50.85,45.32Z" fill="#414042"/><path d="M58.75,40.58A3.22,3.22,0,1,0,62,43.79,3.22,3.22,0,0,0,58.75,40.58Zm0,4.74a1.53,1.53,0,1,1,0-3,1.53,1.53,0,0,1,0,3Z" fill="#414042"/><path d="M43,40.58a3.22,3.22,0,1,0,3.21,3.21A3.22,3.22,0,0,0,43,40.58Zm0,4.74a1.53,1.53,0,1,1,0-3,1.53,1.53,0,0,1,0,3Z" fill="#414042"/><path d="M34.49,53.41a.85.85,0,0,0-1.2,0l-2.75,2.75-.95-.94a.84.84,0,0,0-1.19,0,.85.85,0,0,0,0,1.2L29.94,58a.84.84,0,0,0,.6.25.82.82,0,0,0,.59-.25l3.36-3.35A.84.84,0,0,0,34.49,53.41Z" fill="#414042"/><rect x="0.5" y="0.5" width="89.63" height="89.63" rx="2" fill="none" stroke="#414042" stroke-miterlimit="10"/></g></g></svg>