<svg xmlns="http://www.w3.org/2000/svg" viewBox="0 0 156.67 77.15"><defs><style>.cls-1{fill:#E8244B;}</style></defs><title>otr_logo_black</title><g id="Layer_2" data-name="Layer 2"><g id="Layer_1-2" data-name="Layer 1"><path class="cls-1" d="M30.9,35.5A10.75,10.75,0,1,1,20.16,46.25,10.76,10.76,0,0,1,30.9,35.5m0-20.15a30.9,30.9,0,1,0,30.91,30.9A30.9,30.9,0,0,0,30.9,15.35Z"/><path class="cls-1" d="M115.64,15.61V77.15h20.51V43.76a7.64,7.64,0,0,1,7.63-7.64h12.89V15.61Z"/><path class="cls-1" d="M96.34,15.61A7.63,7.63,0,0,1,88.71,8V0H68.19V77.15H88.71V43.76a7.63,7.63,0,0,1,7.63-7.64h12.88V15.61Z"/></g></g></svg>