<?xml version="1.0" standalone="no"?>
<!DOCTYPE svg PUBLIC "-//W3C//DTD SVG 20010904//EN"
 "http://www.w3.org/TR/2001/REC-SVG-20010904/DTD/svg10.dtd">
<svg version="1.0" xmlns="http://www.w3.org/2000/svg"
 width="1256.000000pt" height="1256.000000pt" viewBox="0 0 1256.000000 1256.000000"
 preserveAspectRatio="xMidYMid meet">
<metadata>
Created by potrace 1.11, written by Peter Selinger 2001-2013
</metadata>
<g transform="translate(0.000000,1256.000000) scale(0.100000,-0.100000)"
fill="#000000" stroke="none">
<path d="M5469 9353 c-1 -10 -2 -1403 -2 -3096 l-2 -3077 823 0 822 0 0 33 c0
17 2 646 3 1397 l3 1365 22 63 c90 259 300 421 562 432 30 1 280 3 555 3 l500
2 1 810 c0 446 -1 815 -3 821 -3 8 -162 11 -541 12 -552 1 -595 2 -672 28
-207 70 -353 224 -408 431 -17 63 -19 111 -20 410 -1 186 -1 348 -2 361 l0 22
-820 0 c-774 0 -820 -1 -821 -17z"/>
<path d="M2339 8135 c-2 -2 -33 -4 -69 -6 -36 -1 -69 -4 -74 -7 -5 -3 -28 -6
-52 -8 -25 -1 -68 -7 -97 -13 -28 -6 -63 -13 -77 -15 -162 -28 -394 -109 -600
-210 -47 -22 -87 -43 -90 -46 -3 -3 -21 -13 -40 -24 -35 -18 -231 -146 -240
-156 -3 -3 -18 -16 -35 -28 -80 -61 -119 -96 -226 -202 -64 -63 -149 -155
-188 -205 -39 -49 -75 -95 -80 -100 -17 -23 -111 -167 -111 -172 0 -3 -8 -17
-18 -31 -31 -45 -112 -202 -104 -202 4 0 2 -4 -3 -8 -16 -11 -127 -300 -140
-362 -2 -8 -8 -35 -15 -60 -13 -48 -18 -70 -26 -110 -3 -14 -7 -32 -9 -40 -2
-8 -7 -37 -11 -65 -3 -27 -8 -59 -11 -70 -24 -114 -23 -550 3 -678 2 -12 7
-44 10 -72 3 -27 8 -57 11 -65 2 -8 7 -26 9 -40 37 -205 175 -559 290 -742 13
-21 24 -42 24 -47 0 -5 3 -11 8 -13 4 -1 23 -28 42 -58 19 -30 37 -57 40 -60
3 -3 27 -34 54 -70 40 -55 164 -198 202 -234 104 -99 142 -133 210 -189 45
-37 86 -67 92 -67 6 0 12 -4 14 -8 5 -12 132 -97 218 -146 73 -42 269 -136
283 -136 7 0 17 -4 23 -9 12 -13 286 -102 292 -96 3 3 10 1 16 -4 14 -12 164
-43 267 -56 19 -2 59 -8 89 -12 114 -16 497 -8 613 12 15 3 39 7 55 10 15 2
40 7 55 11 16 3 38 7 50 9 65 8 269 69 392 118 109 43 354 165 400 200 5 4 42
28 80 53 39 26 91 64 117 85 26 22 49 39 51 39 14 0 251 228 322 310 16 19 65
82 108 140 43 58 81 110 85 115 5 6 11 17 15 25 4 8 16 29 27 45 11 17 24 40
29 52 5 11 15 24 20 28 6 3 11 15 11 26 0 10 4 19 8 19 19 0 150 308 183 430
6 19 13 42 16 50 8 20 7 17 22 82 7 32 12 59 11 60 -1 2 3 15 9 29 5 15 12 47
16 70 3 24 8 55 11 69 25 130 36 441 20 585 -4 33 -9 83 -11 110 -3 28 -7 61
-10 75 -3 14 -8 41 -11 60 -13 89 -97 383 -133 465 -5 11 -17 38 -27 60 -10
22 -19 42 -19 45 -6 31 -165 317 -212 379 -6 9 -40 54 -74 100 -94 126 -250
292 -363 386 -27 22 -62 52 -80 67 -17 15 -34 28 -38 28 -4 0 -13 6 -21 14
-32 33 -227 153 -340 211 -177 89 -420 180 -534 200 -18 3 -43 9 -57 15 -14 5
-44 12 -68 14 -24 3 -53 8 -66 10 -90 18 -201 28 -358 31 -100 2 -183 2 -185
0z m237 -1620 c113 -10 279 -68 351 -121 17 -13 36 -24 42 -24 6 0 11 -4 11
-10 0 -5 6 -10 13 -10 21 0 163 -154 210 -226 95 -150 137 -300 132 -479 -2
-66 -6 -130 -9 -142 -3 -13 -8 -31 -10 -41 -12 -51 -29 -108 -36 -117 -4 -5
-12 -25 -18 -42 -12 -35 -86 -154 -124 -198 -84 -100 -224 -202 -328 -241 -25
-9 -59 -23 -77 -30 -17 -8 -35 -14 -40 -13 -4 1 -10 0 -13 -1 -18 -7 -135 -22
-157 -21 -15 1 -37 1 -79 0 -44 -2 -170 21 -237 42 -261 83 -491 324 -559 586
-87 337 15 665 278 893 134 116 326 192 504 199 36 1 67 4 69 7 2 2 7 1 12 -1
4 -3 34 -8 65 -10z"/>
<path d="M9270 5648 l0 -2468 823 0 822 0 1 1368 c1 752 4 1387 8 1412 7 49
24 109 36 125 4 6 11 21 15 35 4 14 22 46 39 71 103 152 254 250 426 275 25 3
287 6 583 6 l537 1 0 822 0 822 -1645 0 -1645 0 0 -2469z"/>
</g>
</svg>
